<svg width="255" height="90" viewBox="0 0 255 90" fill="none" xmlns="http://www.w3.org/2000/svg">
<mask id="mask0_0_1" style="mask-type:luminance" maskUnits="userSpaceOnUse" x="134" y="11" width="58" height="53">
<path fill-rule="evenodd" clip-rule="evenodd" d="M191.914 11.8649L169.755 63.2744L134.611 63.2742L134.611 11.8646L191.914 11.8649Z" fill="white"/>
</mask>
<g mask="url(#mask0_0_1)">
<path d="M167.008 17.0879H199.51C210.821 17.0879 219.991 26.2574 219.991 37.5686C219.991 48.8798 210.821 58.0493 199.51 58.0493H167.008C155.697 58.0493 146.527 48.8798 146.527 37.5686C146.527 26.2574 155.697 17.0879 167.008 17.0879Z" stroke="white" stroke-width="8"/>
</g>
<mask id="mask1_0_1" style="mask-type:luminance" maskUnits="userSpaceOnUse" x="179" y="11" width="55" height="53">
<path fill-rule="evenodd" clip-rule="evenodd" d="M179.73 63.2731L201.92 11.7931L233.034 11.793V63.2732L179.73 63.2731Z" fill="white"/>
</mask>
<g mask="url(#mask1_0_1)">
<path d="M210.67 56.4779L210.67 56.4782C207.994 58.0894 204.781 59.0484 201.354 59.0484H165.148C154.525 59.0484 145.52 49.6577 145.52 37.5676C145.52 25.4776 154.525 16.0869 165.148 16.0869H201.354C211.977 16.0869 220.983 25.4776 220.983 37.5676C220.983 45.748 216.814 52.7803 210.67 56.4779Z" stroke="white" stroke-width="6"/>
</g>
<path fill-rule="evenodd" clip-rule="evenodd" d="M169.649 72.6371L199.704 2.90709L195.603 0.837891L165.547 70.5679L169.649 72.6371Z" fill="#D4D5D8"/>
<path fill-rule="evenodd" clip-rule="evenodd" d="M240.298 61.6625C236.276 61.6625 232.904 60.2902 230.181 57.5793C227.459 54.8681 226.098 51.4877 226.098 47.4714H231.976C231.976 49.9146 232.78 51.9228 234.42 53.5628C236.06 55.2029 238.04 56.0397 240.422 56.0397C242.742 56.0397 244.691 55.3033 246.238 53.8641C247.754 52.4248 248.527 50.651 248.527 48.4755C248.527 44.2248 245.341 41.2795 238.968 39.5725C230.862 37.4304 226.809 32.8116 226.809 25.716C226.809 22.0009 228.109 18.9217 230.676 16.4114C233.244 13.9347 236.431 12.6963 240.298 12.6963C244.134 12.6963 247.352 14.0016 249.92 16.5788C252.487 19.1559 253.787 22.4025 253.787 26.285H247.909C247.909 24.0091 247.166 22.1013 245.712 20.5951C244.258 19.089 242.433 18.3192 240.236 18.3192C238.132 18.3192 236.369 18.9886 234.915 20.3609C233.461 21.7331 232.749 23.4401 232.749 25.4483C232.749 29.4981 235.719 32.3765 241.69 34.0166C250.229 36.2924 254.498 40.9783 254.498 48.0738C254.498 51.9563 253.137 55.2029 250.446 57.78C247.754 60.3572 244.351 61.6625 240.298 61.6625L240.298 61.6625Z" fill="white"/>
<path d="M34.362 13.39H45.057V61H34.362V42.094H15.249V61H4.554V13.39H15.249V32.02H34.362V13.39ZM77.4398 25.81H87.5138V61H54.2557V25.81H64.3298V51.271H77.4398V25.81ZM116.921 24.982C121.797 24.982 125.845 26.753 129.065 30.295C132.285 33.791 133.895 38.161 133.895 43.405C133.895 48.649 132.285 53.042 129.065 56.584C125.845 60.08 121.797 61.828 116.921 61.828C112.643 61.828 109.101 60.241 106.295 57.067V61H96.2214V11.32H106.295V29.743C109.101 26.569 112.643 24.982 116.921 24.982ZM108.71 49.615C110.366 51.271 112.436 52.099 114.92 52.099C117.404 52.099 119.451 51.271 121.061 49.615C122.717 47.959 123.545 45.889 123.545 43.405C123.545 40.921 122.717 38.851 121.061 37.195C119.451 35.539 117.404 34.711 114.92 34.711C112.436 34.711 110.366 35.539 108.71 37.195C107.1 38.851 106.295 40.921 106.295 43.405C106.295 45.889 107.1 47.959 108.71 49.615Z" fill="white"/>
</svg>
