<svg xmlns="http://www.w3.org/2000/svg" width="24" height="24" viewBox="0 0 24 24">
  <g id="admin_panel_settings" transform="translate(-3 -3)">
    <path id="Path_25352" data-name="Path 25352" d="M21.667,13.667a8.851,8.851,0,0,1,1.333.12V7.36L13,3,3,7.36v6.547A13.617,13.617,0,0,0,13,27a12.221,12.221,0,0,0,2.133-.733,7.987,7.987,0,0,1,6.533-12.6Z" fill="#fff"/>
    <path id="Path_25353" data-name="Path 25353" d="M18.333,13a5.333,5.333,0,1,0,5.333,5.333A5.332,5.332,0,0,0,18.333,13Zm0,1.84a1.493,1.493,0,1,1-1.493,1.493,1.5,1.5,0,0,1,1.493-1.493Zm0,7.16a3.633,3.633,0,0,1-2.987-1.56c.067-.96,2.013-1.44,2.987-1.44s2.92.48,2.987,1.44A3.633,3.633,0,0,1,18.333,22Z" transform="translate(3.333 3.333)" fill="#fff"/>
  </g>
</svg>
