<svg id="Group_12807" data-name="Group 12807" xmlns="http://www.w3.org/2000/svg" xmlns:xlink="http://www.w3.org/1999/xlink" width="20.361" height="20.351" viewBox="0 0 20.361 20.351">
  <defs>
    <clipPath id="clip-path">
      <rect id="Rectangle_3683" data-name="Rectangle 3683" width="20.361" height="20.351" fill="#fff"/>
    </clipPath>
  </defs>
  <g id="Group_12806" data-name="Group 12806" clip-path="url(#clip-path)">
    <path id="Path_11338" data-name="Path 11338" d="M41.662,43.329H35.846a7.746,7.746,0,0,1,3.187-6.346,7.665,7.665,0,0,1,8.647-.645,7.821,7.821,0,0,1,4.15,6.989H46.068c-.064-.264-.136-.517-.182-.774a.328.328,0,0,1,.078-.23q1.186-1.436,2.381-2.864.218-.262.436-.523.288-.348.043-.582c-.156-.15-.343-.133-.565.052-1.1.916-2.2,1.829-3.293,2.752a.456.456,0,0,1-.5.1,2.169,2.169,0,0,0-2.794,1.906c0,.051-.008.1-.013.163" transform="translate(-33.671 -33.158)" fill="#fff"/>
    <path id="Path_11339" data-name="Path 11339" d="M146.683,189.185h-2.9v-.254q0-4.157,0-8.314c0-.607.265-.872.87-.873.424,0,.848,0,1.272,0a.722.722,0,0,1,.764.751q0,4.282,0,8.563c0,.037,0,.073-.008.126" transform="translate(-135.057 -168.835)" fill="#fff"/>
    <path id="Path_11340" data-name="Path 11340" d="M205.839,222.934h-2.16V222.7q0-3.089,0-6.178a.744.744,0,0,1,.846-.851c.2,0,.409,0,.613,0a.712.712,0,0,1,.717.7c.005,2.165,0,4.331,0,6.5a.285.285,0,0,1-.018.059" transform="translate(-191.318 -202.584)" fill="#fff"/>
    <path id="Path_11341" data-name="Path 11341" d="M98.024,256.692h-2.16v-.208q0-2.021,0-4.042a.738.738,0,0,1,.824-.828c.212,0,.424,0,.636,0a.712.712,0,0,1,.717.7c.007,1.438,0,2.877,0,4.315a.278.278,0,0,1-.018.059" transform="translate(-90.046 -236.342)" fill="#fff"/>
    <path id="Path_11342" data-name="Path 11342" d="M253.773,256.691H251.6c0-.076-.01-.149-.01-.222q0-2.01,0-4.02a.74.74,0,0,1,.836-.838c.212,0,.424-.006.636,0a.709.709,0,0,1,.7.693c.008,1.453,0,2.906,0,4.385" transform="translate(-236.326 -236.34)" fill="#fff"/>
    <path id="Path_11343" data-name="Path 11343" d="M277.728,61.135h-1.452a8.731,8.731,0,0,0-2.281-5.849l1.025-1.03a10.164,10.164,0,0,1,2.708,6.879" transform="translate(-257.367 -50.963)" fill="#fff"/>
    <path id="Path_11344" data-name="Path 11344" d="M3.732,55.292A8.724,8.724,0,0,0,1.45,61.141H0a10.15,10.15,0,0,1,2.705-6.878l1.027,1.029" transform="translate(0 -50.97)" fill="#fff"/>
    <path id="Path_11345" data-name="Path 11345" d="M60.6,0V1.452a8.737,8.737,0,0,0-5.5,2.275L54.071,2.7A10.158,10.158,0,0,1,60.6,0" transform="translate(-50.79)" fill="#fff"/>
    <path id="Path_11346" data-name="Path 11346" d="M180.478,2.724l-1.026,1.028a8.716,8.716,0,0,0-5.491-2.269V.031a10.138,10.138,0,0,1,6.517,2.693" transform="translate(-163.404 -0.029)" fill="#fff"/>
    <path id="Path_11347" data-name="Path 11347" d="M47.977,290.41c0-.764-.016-1.519.007-2.273a.683.683,0,0,1,.676-.619c.264-.011.53-.01.794,0a.694.694,0,0,1,.686.636c.02.747.006,1.5.006,2.256Z" transform="translate(-45.061 -270.063)" fill="#fff"/>
  </g>
</svg>
