<svg id="robot-fill" xmlns="http://www.w3.org/2000/svg" width="30.734" height="30.734" viewBox="0 0 30.734 30.734">
  <path id="Path_25372" data-name="Path 25372" d="M0,0H30.734V30.734H0Z" fill="none"/>
  <path id="Path_25373" data-name="Path 25373" d="M45.13,12.8H37.446V8.96a.96.96,0,1,0-1.921,0V12.8H27.842A3.854,3.854,0,0,0,24,16.644V30.09a3.854,3.854,0,0,0,3.842,3.842H45.13a3.854,3.854,0,0,0,3.842-3.842V16.644A3.854,3.854,0,0,0,45.13,12.8Zm-15.367,7.2A1.441,1.441,0,1,1,31.2,21.446,1.441,1.441,0,0,1,29.763,20.006Zm3.362,9.124h-.96a1.921,1.921,0,1,1,0-3.842h.96Zm4.8,0H35.045V25.288h2.881Zm2.881,0h-.96V25.288h.96a1.921,1.921,0,0,1,0,3.842Zm.96-7.684a1.441,1.441,0,1,1,1.441-1.441A1.441,1.441,0,0,1,41.768,21.446Z" transform="translate(-21.119 -7.04)" fill="##fff"/>
</svg>
