<svg xmlns="http://www.w3.org/2000/svg" width="24" height="24" viewBox="0 0 24 24">
  <g id="pencil" transform="translate(-3.1 -2.7)">
    <path id="Path_1793" data-name="Path 1793" d="M26.483,6.734,23.066,3.317A2.1,2.1,0,0,0,21.625,2.7a1.931,1.931,0,0,0-1.441.617L4.006,19.414c-.041.041-.082.082-.082.123v.123L3.1,26.247a.467.467,0,0,0,.123.329.249.249,0,0,0,.247.124h.041l6.587-.823h.123c.041,0,.082-.041.123-.082L22.7,13.444h0l2.47-2.47h0l1.317-1.317A2.1,2.1,0,0,0,27.1,8.216,2.2,2.2,0,0,0,26.483,6.734ZM6.187,25.547,4.211,23.571l.37-3.005,4.569,4.569ZM18.579,11.757,8.7,21.637a.4.4,0,0,1-.576,0,.4.4,0,0,1,0-.576L18,11.18a.408.408,0,0,1,.576.576Zm3.828.782L17.22,7.352l1.894-1.894L24.3,10.645Z" fill="#fff"/>
  </g>
</svg>
