<svg xmlns="http://www.w3.org/2000/svg" width="12.919" height="18.087" viewBox="0 0 12.919 18.087">
  <g id="md-sync" transform="translate(-96 -32)">
    <path id="Path_11337" data-name="Path 11337" d="M102.46,34.466V32l-3.23,3.288,3.23,3.289V36.111a4.9,4.9,0,0,1,4.845,4.933,4.967,4.967,0,0,1-.565,2.3l1.171,1.192a6.572,6.572,0,0,0-5.45-10.071Zm0,11.51a4.9,4.9,0,0,1-4.845-4.933,4.971,4.971,0,0,1,.565-2.3l-1.171-1.192A6.423,6.423,0,0,0,96,41.043a6.538,6.538,0,0,0,6.46,6.577v2.466l3.23-3.288-3.23-3.289Z" fill="#fff"/>
  </g>
</svg>
